<svg width="2288" height="1000" viewBox="0 0 2288 1000" fill="none" xmlns="http://www.w3.org/2000/svg">
<path d="M311.28 624H247.56L231 570.36H149.64L132.72 624H70.44L153.96 386.4H228.12L311.28 624ZM161.16 528.24H219.48L190.32 432.12L161.16 528.24ZM452.313 386.4C480.633 386.4 502.593 393.12 518.193 406.56C534.033 419.76 541.953 437.4 541.953 459.48C541.953 483.72 534.153 502.2 518.553 514.92C502.953 527.64 480.993 534 452.673 534L446.913 537.24H399.753V624H338.913V386.4H452.313ZM443.673 493.32C455.673 493.32 464.673 490.92 470.673 486.12C476.673 481.32 479.673 473.64 479.673 463.08C479.673 452.76 476.673 445.2 470.673 440.4C464.673 435.6 455.673 433.2 443.673 433.2H399.753V493.32H443.673ZM480.033 506.28L555.993 624H487.593L426.753 519.96L480.033 506.28ZM795.255 555.96C790.695 572.52 783.375 586.2 773.295 597C763.215 607.56 751.215 615.36 737.295 620.4C723.375 625.2 708.015 627.6 691.215 627.6C667.215 627.6 646.455 622.8 628.935 613.2C611.415 603.36 597.975 589.32 588.615 571.08C579.255 552.84 574.575 530.88 574.575 505.2C574.575 479.52 579.255 457.56 588.615 439.32C597.975 421.08 611.415 407.16 628.935 397.56C646.455 387.72 667.095 382.8 690.855 382.8C707.415 382.8 722.655 385.2 736.575 390C750.495 394.56 762.255 401.64 771.855 411.24C781.455 420.84 788.295 433.2 792.375 448.32L738.015 470.28C734.655 455.4 729.135 445.2 721.455 439.68C714.015 434.16 704.535 431.4 693.015 431.4C681.735 431.4 671.895 434.16 663.495 439.68C655.335 445.2 648.975 453.48 644.415 464.52C640.095 475.32 637.935 488.88 637.935 505.2C637.935 521.28 639.975 534.84 644.055 545.88C648.135 556.92 654.255 565.2 662.415 570.72C670.815 576.24 681.135 579 693.375 579C704.895 579 714.615 575.88 722.535 569.64C730.695 563.16 736.215 553.32 739.095 540.12L795.255 555.96ZM1045.69 624H981.974L965.414 570.36H884.054L867.134 624H804.854L888.374 386.4H962.534L1045.69 624ZM895.574 528.24H953.894L924.734 432.12L895.574 528.24ZM1174.13 386.4C1211.33 386.4 1239.77 396.72 1259.45 417.36C1279.37 438 1289.33 467.28 1289.33 505.2C1289.33 543.12 1279.37 572.4 1259.45 593.04C1239.77 613.68 1211.33 624 1174.13 624H1073.33V386.4H1174.13ZM1168.01 577.2C1188.17 577.2 1202.81 571.2 1211.93 559.2C1221.29 546.96 1225.97 528.96 1225.97 505.2C1225.97 481.44 1221.29 463.56 1211.93 451.56C1202.81 439.32 1188.17 433.2 1168.01 433.2H1135.25V577.2H1168.01ZM1331.73 624V386.4H1516.77V434.28H1393.65V482.52H1491.57V527.52H1393.65V576.12H1521.45V624H1331.73ZM1684.33 502.68V552.72H1552.57V502.68H1684.33ZM1840.69 386.4C1877.89 386.4 1906.33 396.72 1926.01 417.36C1945.93 438 1955.89 467.28 1955.89 505.2C1955.89 543.12 1945.93 572.4 1926.01 593.04C1906.33 613.68 1877.89 624 1840.69 624H1739.89V386.4H1840.69ZM1834.57 577.2C1854.73 577.2 1869.37 571.2 1878.49 559.2C1887.85 546.96 1892.53 528.96 1892.53 505.2C1892.53 481.44 1887.85 463.56 1878.49 451.56C1869.37 439.32 1854.73 433.2 1834.57 433.2H1801.81V577.2H1834.57ZM1998.29 624V386.4H2113.85C2143.13 386.64 2164.73 392.28 2178.65 403.32C2192.57 414.12 2199.53 429.84 2199.53 450.48C2199.53 463.92 2195.57 475.56 2187.65 485.4C2179.73 495 2167.61 501.12 2151.29 503.76V504.12C2169.53 506.52 2183.09 512.88 2191.97 523.2C2201.09 533.28 2205.65 545.52 2205.65 559.92C2205.65 580.32 2198.45 596.16 2184.05 607.44C2169.65 618.48 2148.05 624 2119.25 624H1998.29ZM2058.05 580.44H2108.81C2120.09 580.44 2128.49 578.16 2134.01 573.6C2139.53 569.04 2142.29 562.44 2142.29 553.8C2142.29 545.4 2139.53 539.04 2134.01 534.72C2128.49 530.16 2120.09 527.88 2108.81 527.88H2058.05V580.44ZM2058.05 483.6H2103.05C2125.13 483.6 2136.17 474.96 2136.17 457.68C2136.17 440.4 2125.13 431.76 2103.05 431.76H2058.05V483.6Z" fill="white"/>
</svg>
